Title: Cyrano Agency (2010)
Original Title: ì‹œë¼ë…¸;ì—°ì• ì¡°ìž‘ë‹¨ (Si-ra-no;Yeon-ae-jo-jak-do)
Country: South Korea
Language: Korean
Film Genre: Comedy | Romantic comedy | Romance
Subtitles: English(srt/idx,sub), Korean(smi/idx,sub)
Director: Kim Hyeon-seok
Cast: Eom Tae-woong, Lee Min-jeong, Choi Daniel, Park Sin-hye, Park Cheol-min, Jeon Ah-min
IMDB Link: http://www.imdb.com/title/tt1786668/
Info Link: http://www.hancinema.net/korean_movie_Cyrano_Agency.php


Plot or synopsis
Also known as "Cyrano; Dating Agency"

"Cyrano Agency" with a 100% success rate meets an unpredictable client

The Cyrano Agency helps people who can't date to have a love life. The agency helps the client by moving together as an organization and having secret missions. Their creed is to work in the shade and we don't aim for the sun.

One day, the agency's representative Byeong-hoon (Eom Tae-woong) and his operation agent Min-yeong (Park Sin-hye) meet an unpredictable client Sang-yong (Choi Daniel). He has excellent qualities but he is a failure in dating. He is in love with a lovable woman named Hee-joong (Lee Min-jeong). But when Byeong-hun sees Hee-joong's profile, he begins to worry... Will "Cyrano Agency" succeed in their mission?


General
Complete name : Cyrano.Agency.2010.DVDRip.x264.AC3-BAUM.mkv
Format : Matroska
File size : 1.45 GiB
Duration : 1h 58mn
Overall bit rate : 1 762 Kbps
Encoded date : UTC 2011-01-09 07:16:39
Writing application : mkvmerge v4.0.0 ('The Stars were mine') built on Jun 6 2010 16:18:42
Writing library : libebml v1.0.0 + libmatroska v1.0.0

Video #1
ID : 1
Format : AVC
Format/Info : Advanced Video Codec
Format profile : High@L4.1
Format settings, CABAC : Yes
Format settings, ReFrames : 3 frames
Muxing mode : Container profile=Unknown@4.1
Codec ID : V_MPEG4/ISO/AVC
Duration : 1h 58mn
Bit rate mode : Variable
Bit rate : 1 504 Kbps
Maximum bit rate : 14.0 Mbps
Width : 720 pixels
Height : 304 pixels
Display aspect ratio : 2.35:1
Frame rate : 23.976 fps
Color space : YUV
Chroma subsampling : 4:2:0
Bit depth : 8 bits
Scan type : Progressive
Bits/(Pixel*Frame) : 0.287
Stream size : 1.21 GiB (83%)
Writing library : x264 core 98 r1649 c54c47d

Audio #2
ID : 2
Format : AC-3
Format/Info : Audio Coding 3
Mode extension : CM (complete main)
Codec ID : A_AC3
Duration : 1h 58mn
Bit rate mode : Constant
Bit rate : 256 Kbps
Channel(s) : 6 channels
Channel positions : Front: L C R, Side: L R, LFE
Sampling rate : 48.0 KHz
Bit depth : 16 bits
Stream size : 216 MiB (15%)
